# xmcd
#
# Track frame offsets:
#	182
#	12392
#	31255
#	43995
#	54017
#	68755
#	80775
#	93332
#	105582
#	118730
#	132945
#	151242
#	161920
#	172812
#	183710
#	202457
#	214917
#	228665
#	242790
#	252460
#	263297
#	275170
#
# Disc length: 3824 seconds
#
# Revision: 0
# Processed by: cddbd v1.5.1PL0 Copyright (c) Steve Scherf et al.
# Submitted via: dBpowerAMP V4.0
#
DISCID=420eee16
DTITLE=Los Cinco Latinos - Sin título
DYEAR=1900
DGENRE=
TTITLE0=Llorando en la capilla
TTITLE1=Un payaso en el paraíso
TTITLE2=En un rincón del alma
TTITLE3=Comencemos a querernos
TTITLE4=La casa del sol naciente
TTITLE5=Extraños en la noche
TTITLE6=Miguel e Isabel
TTITLE7=Venecia sin tí
TTITLE8=Michelle
TTITLE9=La sombra de tu sonrisa
TTITLE10=La boheme
TTITLE11=Todos aman a alguien
TTITLE12=Tu eres mi destino
TTITLE13=Vals del recuerdo
TTITLE14=Lamento borincano
TTITLE15=Cuando salí de Cuba
TTITLE16=Solamente tú
TTITLE17=Una casa en la cima del mundo
TTITLE18=Abrazame fuerte
TTITLE19=Verás verás
TTITLE20=El silencio
TTITLE21=Gracias
EXTD=
EXTT0=
EXTT1=
EXTT2=
EXTT3=
EXTT4=
EXTT5=
EXTT6=
EXTT7=
EXTT8=
EXTT9=
EXTT10=
EXTT11=
EXTT12=
EXTT13=
EXTT14=
EXTT15=
EXTT16=
EXTT17=
EXTT18=
EXTT19=
EXTT20=
EXTT21=
PLAYORDER=
